<svg xmlns="http://www.w3.org/2000/svg" width="38" height="38" viewBox="0 0 38 38">
  <g id="bathtub-24px" transform="translate(-0.167 -0.167)">
    <g id="Grupo_1" data-name="Grupo 1" transform="translate(-0.033 -0.033)">
      <rect id="Rectángulo_2" data-name="Rectángulo 2" width="38" height="38" transform="translate(0.2 0.2)" fill="none"/>
    </g>
    <g id="Grupo_3" data-name="Grupo 3" transform="translate(3.274 3.274)">
      <g id="Grupo_2" data-name="Grupo 2">
        <circle id="Elipse_1" data-name="Elipse 1" cx="3.5" cy="3.5" r="3.5" transform="translate(4.893 4.893)"/>
        <path id="Trazado_3" data-name="Trazado 3" d="M30.607,19.482V6.5a4.5,4.5,0,0,0-7.676-3.179L20.944,5.306a2.7,2.7,0,0,0-.811-.127,3.156,3.156,0,0,0-1.716.509L22.8,10.074a3.156,3.156,0,0,0,.509-1.716,3.437,3.437,0,0,0-.111-.811L25.187,5.56a1.315,1.315,0,0,1,2.241.938V19.482H16.542a8.1,8.1,0,0,1-1.3-1.144l-2.225-2.463a3.41,3.41,0,0,0-1.1-.795,3.641,3.641,0,0,0-1.589-.366,3.578,3.578,0,0,0-3.56,3.576v1.192H2v9.536A3.188,3.188,0,0,0,5.179,32.2a1.594,1.594,0,0,0,1.589,1.589h22.25A1.594,1.594,0,0,0,30.607,32.2a3.188,3.188,0,0,0,3.179-3.179V19.482Zm0,9.536H5.179V22.661H30.607Z" transform="translate(-2 -2)"/>
      </g>
    </g>
  </g>
</svg>
