<svg xmlns="http://www.w3.org/2000/svg" width="50" height="50" viewBox="0 0 50 50">
  <g id="king_bed-24px" transform="translate(0.143 0.143)">
    <g id="Grupo_4" data-name="Grupo 4" transform="translate(-0.143 -0.143)">
      <rect id="Rectángulo_3" data-name="Rectángulo 3" width="50" height="50" fill="none"/>
    </g>
    <g id="Grupo_5" data-name="Grupo 5" transform="translate(4.18 10.383)">
      <path id="Trazado_4" data-name="Trazado 4" d="M43.353,19.474a4.147,4.147,0,0,0-4.135-4.135v-6.2A4.147,4.147,0,0,0,35.082,5H10.271A4.147,4.147,0,0,0,6.135,9.135v6.2A4.147,4.147,0,0,0,2,19.474V29.812H4.75l1.385,4.135H8.2l1.385-4.135h26.2l1.365,4.135h2.068L40.6,29.812h2.75Zm-8.271-4.135H24.744v-6.2H35.082Zm-24.812-6.2H20.609v6.2H10.271ZM6.135,19.474H39.218v6.2H6.135Z" transform="translate(-2 -5)"/>
    </g>
  </g>
</svg>
