<svg id="place-24px" xmlns="http://www.w3.org/2000/svg" width="40.918" height="40.918" viewBox="0 0 40.918 40.918">
  <path id="Trazado_1" data-name="Trazado 1" d="M17.639,19.049a3.41,3.41,0,1,1,3.41-3.41A3.42,3.42,0,0,1,17.639,19.049ZM27.869,15.98c0-6.189-4.518-10.57-10.229-10.57S7.41,9.791,7.41,15.98c0,3.99,3.325,9.275,10.229,15.583C24.544,25.255,27.869,19.97,27.869,15.98ZM17.639,2A13.562,13.562,0,0,1,31.279,15.98q0,8.49-13.639,20.118Q4.009,24.462,4,15.98A13.562,13.562,0,0,1,17.639,2Z" transform="translate(2.82 1.41)"/>
  <path id="Trazado_2" data-name="Trazado 2" d="M0,0H40.918V40.918H0Z" fill="none"/>
</svg>
