<svg id="zoom_out_map-24px" xmlns="http://www.w3.org/2000/svg" width="32" height="32" viewBox="0 0 32 32">
  <path id="Trazado_5" data-name="Trazado 5" d="M0,0H32V32H0Z" fill="none"/>
  <path id="Trazado_6" data-name="Trazado 6" d="M19,3l3.067,3.067L18.213,9.893l1.893,1.893,3.827-3.853L27,11V3ZM3,11,6.067,7.933l3.827,3.853,1.893-1.893L7.933,6.067,11,3H3Zm8,16L7.933,23.933l3.853-3.827L9.893,18.213,6.067,22.067,3,19v8Zm16-8-3.067,3.067-3.827-3.853-1.893,1.893,3.853,3.827L19,27h8Z" transform="translate(1 1)"/>
</svg>
